<svg xmlns="http://www.w3.org/2000/svg" viewBox="0 0 24.49 24.49"><path d="M12.24 0a12.25 12.25 0 1 0 12.25 12.24A12.24 12.24 0 0 0 12.24 0zM13 19.18h-1.85v-1.89H13zm3-8.42a7.55 7.55 0 0 1-1.62 1.82 8.55 8.55 0 0 0-1.06 1.05 2.5 2.5 0 0 0-.37.79 6.44 6.44 0 0 0-.13 1.43h-1.6v-.49a4.74 4.74 0 0 1 .28-1.69 4 4 0 0 1 .65-1.08 11.71 11.71 0 0 1 1.2-1.15 6.11 6.11 0 0 0 1.12-1.21 2 2 0 0 0 .25-1A2.32 2.32 0 0 0 14 7.54a2.56 2.56 0 0 0-1.85-.73 2.49 2.49 0 0 0-1.77.66 3.57 3.57 0 0 0-.93 2.08l-1.7-.21A4.37 4.37 0 0 1 9.1 6.45a4.38 4.38 0 0 1 3-1 4.55 4.55 0 0 1 3.16 1.07 3.43 3.43 0 0 1 1.18 2.61 3.27 3.27 0 0 1-.44 1.63z" style="fill:#4d647a"/></svg>